<svg width="20" height="20" viewBox="0 0 20 20" fill="none" xmlns="http://www.w3.org/2000/svg">
<rect width="20" height="20" fill="white"/>
<path d="M10.0001 4.16667C6.78342 4.16667 4.16675 6.78334 4.16675 10C4.16675 10.8958 4.37508 11.7408 4.73758 12.5H6.66675C8.04508 12.5 9.16675 13.6217 9.16675 15C9.16675 15.2617 9.11508 15.51 9.04008 15.7475C9.35341 15.7992 9.67258 15.8333 10.0001 15.8333C13.2167 15.8333 15.8334 13.2167 15.8334 10C15.8334 6.78334 13.2167 4.16667 10.0001 4.16667Z" fill="#D8E1E8"/>
<path d="M6.66667 15.8333H0.833333C0.373333 15.8333 0 15.46 0 15C0 14.54 0.373333 14.1667 0.833333 14.1667H6.66667C7.12667 14.1667 7.5 14.54 7.5 15C7.5 15.46 7.12667 15.8333 6.66667 15.8333Z" fill="#D8E1E8"/>
<path d="M10.8333 19.1667H4.16659C3.70659 19.1667 3.33325 18.7933 3.33325 18.3333C3.33325 17.8733 3.70659 17.5 4.16659 17.5H10.8333C11.2933 17.5 11.6666 17.8733 11.6666 18.3333C11.6666 18.7933 11.2933 19.1667 10.8333 19.1667Z" fill="#D8E1E8"/>
<path d="M10.8333 0H9.16663V2.5H10.8333V0Z" fill="#D8E1E8"/>
<path d="M3.51761 2.3397L2.33911 3.5182L4.10686 5.28595L5.28536 4.10745L3.51761 2.3397Z" fill="#D8E1E8"/>
<path d="M0 9.16666L0 10.8333L2.5 10.8333L2.5 9.16666L0 9.16666Z" fill="#D8E1E8"/>
<path d="M17.6607 3.51804L16.4822 2.33954L14.7144 4.10729L15.8929 5.28579L17.6607 3.51804Z" fill="#D8E1E8"/>
<path d="M20 10.8333L20 9.16667L17.5 9.16667L17.5 10.8333L20 10.8333Z" fill="#D8E1E8"/>
<path d="M16.4815 17.6603L17.66 16.4818L15.8923 14.714L14.7138 15.8925L16.4815 17.6603Z" fill="#D8E1E8"/>
</svg>
